<svg width="14" height="14" viewBox="0 0 14 14" fill="none" xmlns="http://www.w3.org/2000/svg">
<g clip-path="url(#clip0_126_1010)">
<path d="M8.16675 3.49999H12.8334M10.5001 1.16666V5.83332M3.55783 11.375C2.79989 11.3003 2.23075 11.0724 1.85041 10.6913C1.16675 10.0082 1.16675 8.90807 1.16675 6.70832V6.41666C1.16675 4.21691 1.16675 3.11674 1.85041 2.43366C2.53408 1.75057 3.63366 1.74999 5.83342 1.74999H6.70842M3.79175 10.5C3.67216 11.0845 3.13725 12.3468 3.68441 12.7546C3.97025 12.9628 4.42583 12.7406 5.33758 12.2961C5.97691 11.984 6.62442 11.6264 7.32383 11.4654C7.57933 11.4071 7.84008 11.382 8.16675 11.375C10.3665 11.375 11.4667 11.375 12.1497 10.6913C12.8025 10.0392 12.8322 9.00666 12.8334 6.99999M4.66675 8.16666H8.16675M4.66675 5.24999H6.41675" stroke="#4F4F4F" stroke-linecap="round" stroke-linejoin="round"/>
</g>
<defs>
<clipPath id="clip0_126_1010">
<rect width="14" height="14" fill="white"/>
</clipPath>
</defs>
</svg>
