<svg width="24" height="24" viewBox="0 0 24 24" fill="none" xmlns="http://www.w3.org/2000/svg">
<path d="M2 6H6M2 13H6M2 21H21M19.4 13.4L22 16M20.7 8.85C20.7 8.08177 20.5487 7.32106 20.2547 6.6113C19.9607 5.90155 19.5298 5.25665 18.9866 4.71343C18.4434 4.1702 17.7985 3.73929 17.0887 3.4453C16.3789 3.15131 15.6182 3 14.85 3C14.0818 3 13.3211 3.15131 12.6113 3.4453C11.9015 3.73929 11.2566 4.1702 10.7134 4.71343C10.1702 5.25665 9.73929 5.90155 9.4453 6.6113C9.15131 7.32106 9 8.08177 9 8.85C9 10.4015 9.61634 11.8895 10.7134 12.9866C11.8105 14.0837 13.2985 14.7 14.85 14.7C16.4015 14.7 17.8895 14.0837 18.9866 12.9866C20.0837 11.8895 20.7 10.4015 20.7 8.85Z" stroke="#0883B7" stroke-width="2" stroke-linecap="round" stroke-linejoin="round"/>
</svg>
