<svg width="18" height="18" viewBox="0 0 18 18" fill="none" xmlns="http://www.w3.org/2000/svg">
<g clip-path="url(#clip0_97_86)">
<path d="M15 6.75C14.4037 3.76125 11.6348 1.5 8.31 1.5C4.548 1.5 1.5 4.39125 1.5 7.9575C1.5 9.67125 2.2035 11.2275 3.35175 12.3825C3.60375 12.6375 3.7725 12.9848 3.70425 13.3425C3.59337 13.9243 3.3392 14.4692 2.96475 14.928C3.94609 15.1058 4.95872 14.9498 5.841 14.4847C6.15 14.3212 6.30525 14.2403 6.414 14.2238C6.4905 14.2118 6.59025 14.223 6.75 14.25" stroke="#4F4F4F" stroke-width="1.5" stroke-linecap="round" stroke-linejoin="round"/>
<path d="M8.25 12.1965C8.25 14.3752 10.0973 16.1423 12.375 16.1423C12.6435 16.1423 12.9095 16.1177 13.173 16.0687C13.3627 16.0335 13.4573 16.0155 13.5233 16.0253C13.5893 16.0358 13.683 16.0852 13.8705 16.185C14.4 16.467 15.018 16.5667 15.6127 16.4557C15.3852 16.1752 15.231 15.8425 15.1642 15.4875C15.123 15.2685 15.225 15.0563 15.3787 14.901C16.095 14.1829 16.4981 13.2107 16.5 12.1965C16.5 10.017 14.6527 8.25 12.375 8.25C10.0973 8.25 8.25 10.017 8.25 12.1965Z" stroke="#4F4F4F" stroke-width="1.5" stroke-linecap="round" stroke-linejoin="round"/>
</g>
<defs>
<clipPath id="clip0_97_86">
<rect width="18" height="18" fill="white"/>
</clipPath>
</defs>
</svg>
