<svg width="16" height="16" viewBox="0 0 16 16" fill="none" xmlns="http://www.w3.org/2000/svg">
<g clip-path="url(#clip0_98_1016)">
<path d="M6 10C6 8.11467 6 7.17133 6.586 6.586C7.17133 6 8.11467 6 10 6H10.6667C12.552 6 13.4953 6 14.0807 6.586C14.6667 7.17133 14.6667 8.11467 14.6667 10V10.6667C14.6667 12.552 14.6667 13.4953 14.0807 14.0807C13.4953 14.6667 12.552 14.6667 10.6667 14.6667H10C8.11467 14.6667 7.17133 14.6667 6.586 14.0807C6 13.4953 6 12.552 6 10.6667V10Z" stroke="#4F4F4F" stroke-linecap="round" stroke-linejoin="round"/>
<path d="M11.3333 6.00001C11.3313 4.02868 11.3019 3.00734 10.7279 2.30801C10.6172 2.17311 10.4935 2.04941 10.3586 1.93868C9.61992 1.33334 8.52525 1.33334 6.33325 1.33334C4.14192 1.33334 3.04592 1.33334 2.30792 1.93868C2.17302 2.04941 2.04931 2.17311 1.93859 2.30801C1.33325 3.04668 1.33325 4.14134 1.33325 6.33334C1.33325 8.52468 1.33325 9.62068 1.93859 10.3587C2.04931 10.4936 2.17302 10.6173 2.30792 10.728C3.00792 11.3013 4.02792 11.332 5.99992 11.3333" stroke="#4F4F4F" stroke-linecap="round" stroke-linejoin="round"/>
</g>
<defs>
<clipPath id="clip0_98_1016">
<rect width="16" height="16" fill="white"/>
</clipPath>
</defs>
</svg>
