<svg width="16" height="16" viewBox="0 0 16 16" fill="none" xmlns="http://www.w3.org/2000/svg">
<path d="M6.97339 9.26333H3.28472C1.58739 9.26333 3.79406 2 5.01006 2H13.3574C13.7121 2 14.0001 2.28267 14.0001 2.63133V8.888C13.9994 9.00202 13.9679 9.11373 13.909 9.21136C13.8501 9.30899 13.7659 9.3889 13.6654 9.44267C12.2907 10.18 10.6781 10.784 9.88006 12.1953L9.02672 13.706C8.97585 13.7958 8.90195 13.8703 8.81266 13.922C8.72336 13.9737 8.62189 14.0006 8.51872 14C6.39872 14 7.02739 10.9133 7.31539 9.68667C7.32697 9.63559 7.32684 9.58256 7.31499 9.53154C7.30314 9.48053 7.27989 9.43286 7.24697 9.39213C7.21406 9.35139 7.17235 9.31863 7.12496 9.29633C7.07758 9.27402 7.02576 9.26274 6.97339 9.26333Z" stroke="#4F4F4F" stroke-linecap="round" stroke-linejoin="round"/>
</svg>
