<svg width="24" height="24" viewBox="0 0 24 24" fill="none" xmlns="http://www.w3.org/2000/svg">
<path d="M5.83781 10.184C6.02781 10.674 6.47781 10.994 7.00781 10.994C7.53781 10.994 7.99781 10.674 8.17781 10.184L8.88781 8.264C8.90781 8.194 8.95781 8.144 9.02781 8.124L10.9478 7.414C11.4378 7.224 11.7578 6.774 11.7578 6.244C11.7578 5.714 11.4378 5.254 10.9478 5.074L9.02781 4.364C8.99586 4.35197 8.96685 4.33325 8.9427 4.30911C8.91856 4.28497 8.89985 4.25595 8.88781 4.224L8.17781 2.304C7.98781 1.814 7.53781 1.494 7.00781 1.494C6.47781 1.494 6.01781 1.814 5.83781 2.304L5.12781 4.224C5.10781 4.294 5.05781 4.344 4.98781 4.364L3.06781 5.074C2.57781 5.264 2.25781 5.714 2.25781 6.244C2.25781 6.774 2.57781 7.234 3.06781 7.414L4.98781 8.124C5.05781 8.154 5.10781 8.204 5.12781 8.264L5.83781 10.184ZM5.50781 6.714L4.23781 6.244L5.50781 5.774C5.98781 5.594 6.35781 5.224 6.53781 4.744L7.00781 3.474L7.47781 4.744C7.65781 5.214 8.03781 5.594 8.50781 5.764L9.77781 6.234L8.50781 6.704C8.02781 6.884 7.65781 7.254 7.47781 7.734L7.00781 9.004L6.53781 7.734C6.35781 7.264 5.97781 6.884 5.50781 6.714ZM5.25781 22.244C5.25781 22.654 5.59781 22.994 6.00781 22.994H7.50781L7.49781 23.004C8.76781 23.004 9.46781 23.004 10.1478 22.724C10.8278 22.444 11.3178 21.954 12.2178 21.054L20.3678 12.904L20.4138 12.858C20.9548 12.308 21.2638 11.994 21.4578 11.605C21.8378 10.845 21.8378 9.945 21.4578 9.185C21.2758 8.792 20.9748 8.491 20.4398 7.957L20.3678 7.885L20.3208 7.839C19.7708 7.297 19.4568 6.989 19.0678 6.795C18.3078 6.415 17.4078 6.415 16.6478 6.795C16.2548 6.977 15.9538 7.278 15.4198 7.812L15.3478 7.885L13.8678 9.365L7.20781 16.025C6.31781 16.915 5.81781 17.415 5.53781 18.095C5.25781 18.775 5.25781 19.475 5.25781 20.745V22.244ZM6.76781 21.494V20.754C6.76781 19.634 6.76781 19.084 6.93781 18.674C7.10781 18.264 7.49781 17.874 8.28781 17.084L14.4278 10.944L15.3778 11.894C15.6678 12.184 16.1478 12.184 16.4378 11.894C16.7278 11.604 16.7278 11.124 16.4378 10.834L15.4878 9.884L16.4378 8.934C16.8878 8.484 17.1578 8.214 17.3378 8.124C17.6778 7.954 18.0878 7.954 18.4278 8.124C18.6078 8.214 18.8778 8.484 19.3278 8.934C19.7778 9.384 20.0478 9.654 20.1378 9.834C20.3078 10.174 20.3078 10.584 20.1378 10.924C20.0478 11.104 19.7778 11.374 19.3278 11.824L11.1778 19.974C10.3378 20.814 9.97781 21.164 9.58781 21.324C9.17781 21.494 8.61781 21.494 7.50781 21.494H6.76781Z" fill="#0883B7"/>
</svg>
