<svg width="24" height="24" viewBox="0 0 24 24" fill="none" xmlns="http://www.w3.org/2000/svg">
<path d="M13 4L20 11M14 22H22M14.074 3.885C14.819 3.078 15.191 2.675 15.587 2.439C16.0545 2.15918 16.5875 2.00751 17.1322 1.99926C17.677 1.99101 18.2143 2.12647 18.69 2.392C19.093 2.616 19.477 3.008 20.245 3.792C21.013 4.577 21.397 4.97 21.615 5.381C21.8752 5.87041 22.0074 6.4176 21.9996 6.97178C21.9917 7.52596 21.844 8.06917 21.57 8.551C21.34 8.955 20.945 9.336 20.154 10.097L10.751 19.154C9.25305 20.597 8.50405 21.318 7.56805 21.684C6.63205 22.05 5.60305 22.022 3.54505 21.969L3.26505 21.961C2.63905 21.945 2.32505 21.937 2.14405 21.73C1.96105 21.523 1.98605 21.204 2.03605 20.566L2.06305 20.22C2.20305 18.424 2.27305 17.526 2.62305 16.718C2.97305 15.91 3.57905 15.255 4.78905 13.944L14.074 3.885Z" stroke="#4F4F4F" stroke-width="1.75" stroke-linecap="round" stroke-linejoin="round"/>
</svg>
