<svg width="20" height="20" viewBox="0 0 20 20" fill="none" xmlns="http://www.w3.org/2000/svg">
<path d="M5.83337 6.25L8.28504 7.7C9.71421 8.545 10.285 8.545 11.715 7.7L14.1667 6.25" stroke="#9F9F9F" stroke-width="1.25" stroke-linecap="round" stroke-linejoin="round"/>
<path d="M8.75001 16.25C8.36081 16.2449 7.97163 16.2374 7.58251 16.2275C4.95835 16.1617 3.64668 16.1292 2.70418 15.1817C1.76168 14.235 1.73418 12.9567 1.67918 10.4008C1.66163 9.58065 1.66163 8.76019 1.67918 7.94C1.73418 5.38417 1.76168 4.10667 2.70418 3.15917C3.64668 2.2125 4.95835 2.18 7.58251 2.11417C9.19392 2.07351 10.8061 2.07351 12.4175 2.11417C15.0417 2.18 16.3533 2.2125 17.2958 3.15917C18.2383 4.10584 18.2658 5.38417 18.3208 7.94C18.3283 8.31917 18.3325 8.49667 18.3333 8.75" stroke="#9F9F9F" stroke-width="1.25" stroke-linecap="round" stroke-linejoin="round"/>
<path d="M15.8334 14.1667C15.8334 14.4982 15.7017 14.8161 15.4673 15.0505C15.2328 15.285 14.9149 15.4167 14.5834 15.4167C14.2519 15.4167 13.9339 15.285 13.6995 15.0505C13.4651 14.8161 13.3334 14.4982 13.3334 14.1667C13.3334 13.8351 13.4651 13.5172 13.6995 13.2828C13.9339 13.0484 14.2519 12.9167 14.5834 12.9167C14.9149 12.9167 15.2328 13.0484 15.4673 13.2828C15.7017 13.5172 15.8334 13.8351 15.8334 14.1667ZM15.8334 14.1667V14.5833C15.8334 14.9149 15.9651 15.2328 16.1995 15.4672C16.4339 15.7016 16.7519 15.8333 17.0834 15.8333C17.4149 15.8333 17.7328 15.7016 17.9673 15.4672C18.2017 15.2328 18.3334 14.9149 18.3334 14.5833V14.1667C18.3334 13.425 18.1134 12.7 17.7014 12.0833C17.2893 11.4666 16.7037 10.9859 16.0184 10.7021C15.3332 10.4183 14.5792 10.344 13.8518 10.4887C13.1244 10.6334 12.4562 10.9906 11.9317 11.515C11.4073 12.0395 11.0501 12.7076 10.9054 13.4351C10.7607 14.1625 10.835 14.9165 11.1188 15.6017C11.4027 16.287 11.8833 16.8726 12.5 17.2847C13.1167 17.6967 13.8417 17.9167 14.5834 17.9167" stroke="#9F9F9F" stroke-width="1.25" stroke-linecap="round" stroke-linejoin="round"/>
</svg>
