<svg width="16" height="16" viewBox="0 0 16 16" fill="none" xmlns="http://www.w3.org/2000/svg">
<path d="M9.69341 6.73668H13.3821C15.0794 6.73668 12.8727 14 11.6567 14H3.30941C3.1405 14.0014 2.97792 13.9357 2.85742 13.8174C2.73691 13.699 2.66833 13.5376 2.66675 13.3687V7.11201C2.66675 6.88068 2.79541 6.66801 3.00141 6.55734C4.37608 5.82001 5.98875 5.21601 6.78675 3.80468L7.64008 2.29401C7.69095 2.20425 7.76485 2.12969 7.85415 2.07801C7.94344 2.02633 8.04491 1.9994 8.14808 2.00001C10.2681 2.00001 9.63942 5.08668 9.35142 6.31334C9.33983 6.36442 9.33997 6.41745 9.35182 6.46847C9.36367 6.51948 9.38692 6.56715 9.41983 6.60789C9.45274 6.64862 9.49446 6.68138 9.54184 6.70368C9.58922 6.72599 9.64105 6.73727 9.69341 6.73668Z" stroke="#4F4F4F" stroke-linecap="round" stroke-linejoin="round"/>
</svg>
