<svg width="24" height="24" viewBox="0 0 24 24" fill="none" xmlns="http://www.w3.org/2000/svg">
<path d="M15 17.625C14.926 19.477 13.383 21.049 11.316 20.999C10.835 20.987 10.24 20.819 9.051 20.484C6.19 19.677 3.706 18.32 3.11 15.282C3 14.723 3 14.094 3 12.837V11.163C3 9.90598 3 9.27698 3.11 8.71798C3.706 5.67998 6.19 4.32298 9.051 3.51598C10.241 3.18098 10.835 3.01298 11.316 3.00098C13.383 2.95098 14.926 4.52298 15 6.37498" stroke="#4F4F4F" stroke-width="1.5" stroke-linecap="round" stroke-linejoin="round"/>
<path d="M10 12H21M10 12C10 11.3 11.994 9.992 12.5 9.5M10 12C10 12.7 11.994 14.008 12.5 14.5" stroke="#4F4F4F" stroke-width="1.5" stroke-linecap="round" stroke-linejoin="round"/>
</svg>
