<svg width="24" height="24" viewBox="0 0 24 24" fill="none" xmlns="http://www.w3.org/2000/svg">
<path d="M2.75 12C2.75 17.523 7.227 22 12.75 22C18.273 22 22.75 17.523 22.75 12C22.75 6.477 18.273 2 12.75 2M5.399 5.079C5.537 4.93233 5.67933 4.78967 5.826 4.651M8.697 2.73C8.879 2.64867 9.06333 2.57233 9.25 2.501M3.482 7.942C3.39933 8.12533 3.322 8.31133 3.25 8.5M15.75 9L12.75 12M12.75 12L9.75 15M12.75 12L15.75 15M12.75 12L9.75 9" stroke="#C9C9C9" stroke-width="1.25" stroke-linecap="round" stroke-linejoin="round"/>
</svg>
