<svg width="21" height="22" viewBox="0 0 21 22" fill="none" xmlns="http://www.w3.org/2000/svg">
<path d="M12.6796 14.0625H12.6875M8.3125 14.0625H8.32037M3.7345 16.9894C3.93138 18.4506 5.1415 19.596 6.615 19.6634C7.854 19.7203 9.11312 19.75 10.5 19.75C11.8869 19.75 13.146 19.7203 14.385 19.6625C15.8585 19.596 17.0686 18.4506 17.2655 16.9894C17.3941 16.0356 17.5 15.0583 17.5 14.0625C17.5 13.0668 17.3941 12.0894 17.2655 11.1356C17.0686 9.67438 15.8585 8.529 14.385 8.46163C13.0909 8.40248 11.7955 8.3736 10.5 8.375C9.11312 8.375 7.854 8.40475 6.615 8.4625C5.1415 8.529 3.93138 9.67438 3.7345 11.1356C3.605 12.0894 3.5 13.0668 3.5 14.0625C3.5 15.0583 3.60588 16.0356 3.7345 16.9894Z" stroke="#9F9F9F" stroke-width="1.25" stroke-linecap="round" stroke-linejoin="round"/>
<path d="M6.5625 8.375V6.1875C6.5625 5.14321 6.97734 4.14169 7.71577 3.40327C8.45419 2.66484 9.45571 2.25 10.5 2.25C11.5443 2.25 12.5458 2.66484 13.2842 3.40327C14.0227 4.14169 14.4375 5.14321 14.4375 6.1875V8.375" stroke="#9F9F9F" stroke-width="1.25" stroke-linecap="round" stroke-linejoin="round"/>
</svg>
