<svg width="24" height="24" viewBox="0 0 24 24" fill="none" xmlns="http://www.w3.org/2000/svg">
<path d="M17 5H22M17 8H22M20 11H22M5.07998 15.296C3.86198 16.034 0.667978 17.539 2.61398 19.422C3.56398 20.342 4.62298 21 5.95398 21H13.547C14.877 21 15.936 20.342 16.887 19.422C18.832 17.539 15.637 16.033 14.419 15.296C13.0091 14.4482 11.3951 14.0003 9.74998 14.0003C8.10487 14.0003 6.48981 14.4482 5.07998 15.296ZM13.5 7C13.5 8.06087 13.0786 9.07828 12.3284 9.82843C11.5783 10.5786 10.5608 11 9.49998 11C8.43911 11 7.4217 10.5786 6.67155 9.82843C5.9214 9.07828 5.49998 8.06087 5.49998 7C5.49998 5.93913 5.9214 4.92172 6.67155 4.17157C7.4217 3.42143 8.43911 3 9.49998 3C10.5608 3 11.5783 3.42143 12.3284 4.17157C13.0786 4.92172 13.5 5.93913 13.5 7Z" stroke="#4F4F4F" stroke-width="1.5" stroke-linecap="round" stroke-linejoin="round"/>
</svg>
