<svg width="24" height="24" viewBox="0 0 24 24" fill="none" xmlns="http://www.w3.org/2000/svg">
<path d="M19 18C20.414 18 21.121 18 21.56 17.56C22 17.121 22 16.414 22 15C22 13.586 22 12.879 21.56 12.44C21.122 12 20.415 12 19 12M5 18C3.586 18 2.879 18 2.44 17.56C2 17.122 2 16.415 2 15C2 13.585 2 12.879 2.44 12.44C2.878 12 3.585 12 5 12M12 5C12.3978 5 12.7794 4.84196 13.0607 4.56066C13.342 4.27936 13.5 3.89782 13.5 3.5C13.5 3.10218 13.342 2.72064 13.0607 2.43934C12.7794 2.15804 12.3978 2 12 2C11.6022 2 11.2206 2.15804 10.9393 2.43934C10.658 2.72064 10.5 3.10218 10.5 3.5C10.5 3.89782 10.658 4.27936 10.9393 4.56066C11.2206 4.84196 11.6022 5 12 5ZM12 5V8M9 13V14M15 13V14M19 16V14C19 11.172 19 9.757 18.121 8.879C17.243 8 15.828 8 13 8H11C8.172 8 6.757 8 5.879 8.879C5 9.757 5 11.172 5 14V16C5 18.828 5 20.243 5.879 21.121C6.757 22 8.172 22 11 22H13C15.828 22 17.243 22 18.121 21.121C19 20.243 19 18.828 19 16Z" stroke="white" stroke-width="1.5" stroke-linecap="round" stroke-linejoin="round"/>
<path d="M10 17.5C10 17.5 10.667 18 12 18C13.333 18 14 17.5 14 17.5" stroke="white" stroke-width="1.5" stroke-linecap="round" stroke-linejoin="round"/>
</svg>
