<svg width="24" height="24" viewBox="0 0 24 24" fill="none" xmlns="http://www.w3.org/2000/svg">
<path d="M15.5 12C15.5 12.4597 15.4095 12.9148 15.2336 13.3394C15.0577 13.7641 14.7999 14.1499 14.4749 14.4749C14.1499 14.7999 13.764 15.0577 13.3394 15.2336C12.9148 15.4095 12.4596 15.5 12 15.5C11.5404 15.5 11.0852 15.4095 10.6606 15.2336C10.236 15.0577 9.85013 14.7999 9.52513 14.4749C9.20012 14.1499 8.94231 13.7641 8.76642 13.3394C8.59053 12.9148 8.5 12.4597 8.5 12C8.5 11.0718 8.86875 10.1815 9.52513 9.52516C10.1815 8.86878 11.0717 8.50003 12 8.50003C12.9283 8.50003 13.8185 8.86878 14.4749 9.52516C15.1313 10.1815 15.5 11.0718 15.5 12Z" stroke="#4F4F4F" stroke-width="1.5" stroke-linecap="round" stroke-linejoin="round"/>
<path d="M21.011 14.097C21.533 13.956 21.794 13.885 21.897 13.751C22 13.616 22 13.4 22 12.967V11.033C22 10.6 22 10.383 21.897 10.249C21.794 10.115 21.533 10.044 21.011 9.90402C19.061 9.37802 17.84 7.33902 18.343 5.40102C18.482 4.86802 18.551 4.60102 18.485 4.44502C18.419 4.28902 18.229 4.18102 17.85 3.96602L16.125 2.98602C15.753 2.77602 15.567 2.67002 15.4 2.69202C15.233 2.71402 15.044 2.90202 14.667 3.27902C13.208 4.73402 10.794 4.73402 9.334 3.27902C8.957 2.90302 8.769 2.71502 8.602 2.69202C8.435 2.67002 8.249 2.77502 7.877 2.98702L6.152 3.96602C5.772 4.18102 5.582 4.28902 5.517 4.44602C5.451 4.60102 5.52 4.86802 5.658 5.40102C6.161 7.33902 4.94 9.37802 2.989 9.90402C2.467 10.044 2.206 10.114 2.103 10.249C2 10.384 2 10.6 2 11.033V12.967C2 13.4 2 13.617 2.103 13.751C2.206 13.885 2.467 13.956 2.989 14.097C4.939 14.623 6.16 16.662 5.657 18.599C5.518 19.132 5.449 19.399 5.515 19.555C5.581 19.711 5.771 19.819 6.15 20.035L7.875 21.013C8.247 21.225 8.433 21.33 8.6 21.308C8.767 21.286 8.956 21.098 9.333 20.721C10.793 19.264 13.209 19.264 14.669 20.721C15.046 21.097 15.234 21.285 15.401 21.308C15.568 21.33 15.754 21.225 16.127 21.013L17.851 20.034C18.231 19.819 18.421 19.711 18.486 19.554C18.551 19.397 18.483 19.132 18.345 18.599C17.841 16.662 19.061 14.623 21.011 14.097Z" stroke="#4F4F4F" stroke-width="1.5" stroke-linecap="round" stroke-linejoin="round"/>
</svg>
