<svg width="21" height="22" viewBox="0 0 21 22" fill="none" xmlns="http://www.w3.org/2000/svg">
<path fill-rule="evenodd" clip-rule="evenodd" d="M6.78125 7.0625C6.78356 8.04806 7.1761 8.9926 7.873 9.6895C8.5699 10.3864 9.51444 10.7789 10.5 10.7812C11.4856 10.7789 12.4301 10.3864 13.127 9.6895C13.8239 8.9926 14.2164 8.04806 14.2188 7.0625C14.2164 6.07694 13.8239 5.1324 13.127 4.4355C12.4301 3.7386 11.4856 3.34606 10.5 3.34375C9.51444 3.34606 8.5699 3.7386 7.873 4.4355C7.1761 5.1324 6.78356 6.07694 6.78125 7.0625ZM8.09375 7.0625C8.09375 5.7325 9.17 4.65625 10.5 4.65625C11.83 4.65625 12.9062 5.7325 12.9062 7.0625C12.9062 8.3925 11.83 9.46875 10.5 9.46875C9.17 9.46875 8.09375 8.3925 8.09375 7.0625ZM15.5312 18C15.5312 18.3587 15.8288 18.6562 16.1875 18.6562C16.5462 18.6562 16.8438 18.3587 16.8438 18V16.2237C16.8438 14.78 16.135 13.5463 14.98 13.0213C12.2938 11.8138 8.715 11.805 6.02 13.0213C4.865 13.5463 4.15625 14.7712 4.15625 16.2237V18C4.15625 18.3587 4.45375 18.6562 4.8125 18.6562C5.17125 18.6562 5.46875 18.3587 5.46875 18V16.2237C5.46875 15.4887 5.7575 14.5788 6.5625 14.2113C8.91625 13.1525 12.0925 13.1525 14.4375 14.2113C15.2425 14.5875 15.5312 15.4975 15.5312 16.2237V18Z" fill="#9F9F9F"/>
</svg>
