<svg width="21" height="22" viewBox="0 0 21 22" fill="none" xmlns="http://www.w3.org/2000/svg">
<path d="M17.0091 14.0091C17.6826 13.3372 18.2987 12.6102 18.851 11.8356C19.117 11.4629 19.25 11.2756 19.25 11C19.25 10.7235 19.117 10.5371 18.851 10.1644C17.6558 8.48788 14.6029 4.875 10.5 4.875C9.7055 4.875 8.95125 5.01063 8.24075 5.24075M5.9045 6.4045C4.13963 7.5945 2.83675 9.20013 2.149 10.1644C1.883 10.5371 1.75 10.7244 1.75 11C1.75 11.2765 1.883 11.4629 2.149 11.8356C3.34425 13.5121 6.39712 17.125 10.5 17.125C12.2413 17.125 13.7944 16.474 15.0964 15.5964" stroke="#9F9F9F" stroke-width="1.25" stroke-linecap="round" stroke-linejoin="round"/>
<path d="M8.62575 9.25C8.38363 9.48705 8.19093 9.76976 8.05878 10.0818C7.92663 10.3938 7.85767 10.7289 7.85588 11.0677C7.85408 11.4066 7.9195 11.7424 8.04834 12.0558C8.17718 12.3692 8.36689 12.6539 8.60649 12.8935C8.84609 13.1331 9.13082 13.3228 9.44421 13.4517C9.7576 13.5805 10.0934 13.6459 10.4323 13.6441C10.7711 13.6423 11.1062 13.5734 11.4182 13.4412C11.7302 13.3091 12.0129 13.1164 12.25 12.8743M2.625 3.125L18.375 18.875" stroke="#9F9F9F" stroke-width="1.25" stroke-linecap="round" stroke-linejoin="round"/>
</svg>
