<svg width="21" height="22" viewBox="0 0 21 22" fill="none" xmlns="http://www.w3.org/2000/svg">
<path d="M18.851 10.1644C19.117 10.5371 19.25 10.7244 19.25 11C19.25 11.2765 19.117 11.4629 18.851 11.8356C17.6558 13.5121 14.6029 17.125 10.5 17.125C6.39625 17.125 3.34425 13.5112 2.149 11.8356C1.883 11.4629 1.75 11.2756 1.75 11C1.75 10.7235 1.883 10.5371 2.149 10.1644C3.34425 8.48788 6.39712 4.875 10.5 4.875C14.6038 4.875 17.6558 8.48875 18.851 10.1644Z" stroke="#9F9F9F" stroke-width="1.25" stroke-linecap="round" stroke-linejoin="round"/>
<path d="M13.125 11C13.125 10.3038 12.8484 9.63613 12.3562 9.14384C11.8639 8.65156 11.1962 8.375 10.5 8.375C9.80381 8.375 9.13613 8.65156 8.64384 9.14384C8.15156 9.63613 7.875 10.3038 7.875 11C7.875 11.6962 8.15156 12.3639 8.64384 12.8562C9.13613 13.3484 9.80381 13.625 10.5 13.625C11.1962 13.625 11.8639 13.3484 12.3562 12.8562C12.8484 12.3639 13.125 11.6962 13.125 11Z" stroke="#9F9F9F" stroke-width="1.25" stroke-linecap="round" stroke-linejoin="round"/>
</svg>
