<svg width="24" height="24" viewBox="0 0 24 24" fill="none" xmlns="http://www.w3.org/2000/svg">
<path d="M11.992 16H12.001M12 13V8.99999M5.32196 9.68299C7.73496 5.41199 8.94196 3.27699 10.598 2.72699C11.5082 2.42482 12.4917 2.42482 13.402 2.72699C15.058 3.27699 16.265 5.41199 18.678 9.68299C21.092 13.953 22.298 16.089 21.937 17.829C21.737 18.787 21.247 19.655 20.535 20.309C19.241 21.5 16.827 21.5 12 21.5C7.17296 21.5 4.75896 21.5 3.46496 20.31C2.7502 19.6499 2.25995 18.7827 2.06296 17.83C1.70096 16.09 2.90796 13.954 5.32196 9.68299Z" stroke="#ED8936" stroke-width="2" stroke-linecap="round" stroke-linejoin="round"/>
</svg>
