<svg width="36" height="37" viewBox="0 0 36 37" fill="none" xmlns="http://www.w3.org/2000/svg">
<g clip-path="url(#clip0_12_24)">
<mask id="mask0_12_24" style="mask-type:luminance" maskUnits="userSpaceOnUse" x="29" y="25" width="5" height="8">
<path d="M29.76 25.46H33.39V32.66H29.76V25.46Z" fill="white"/>
</mask>
<g mask="url(#mask0_12_24)">
<path d="M32.97 25.7806L32.4244 26C32.775 27.2337 32.55 28.6137 31.695 29.6994L30.0094 31.8387C29.9081 31.9662 29.9306 32.1481 30.0581 32.2475C30.1856 32.3469 30.3694 32.3244 30.4706 32.1987L32.1562 30.0594C33.1462 28.805 33.3956 27.2037 32.97 25.7806Z" fill="#29ABE2"/>
</g>
<path d="M21.2644 25.3962C21.3919 25.4956 21.5756 25.4731 21.675 25.3456L23.3625 23.2062C24.2175 22.1206 25.5112 21.575 26.8012 21.6181L26.8837 21.0406C25.3931 20.9694 23.8894 21.5919 22.9012 22.8462L21.2137 24.9875C21.1144 25.1131 21.1369 25.2969 21.2644 25.3962Z" fill="#29ABE2"/>
<mask id="mask1_12_24" style="mask-type:luminance" maskUnits="userSpaceOnUse" x="31" y="24" width="3" height="2">
<path d="M31.2 24.02H33.39V25.94H31.2V24.02Z" fill="white"/>
</mask>
<g mask="url(#mask1_12_24)">
<path d="M33.1988 25.0325L33.165 24.9481C33.1013 24.7906 33.0319 24.6369 32.9513 24.4887C32.7169 24.0481 32.1244 23.9487 31.7625 24.2956C31.5188 24.53 31.4663 24.8937 31.6238 25.1919C31.6763 25.2912 31.725 25.3925 31.7663 25.4975L31.8 25.5837C31.8825 25.7937 32.1225 25.8969 32.3325 25.8125L32.97 25.5575C33.1781 25.475 33.2794 25.2406 33.1988 25.0325Z" fill="#29ABE2"/>
</g>
<path d="M28.1719 20.7631C27.9694 20.7087 27.7594 20.6675 27.5494 20.6394C27.3319 20.6112 27.1331 20.7669 27.1031 20.9825L27.0056 21.6631C26.9738 21.8862 27.1331 22.0925 27.36 22.1225C27.5006 22.1412 27.6394 22.1694 27.7744 22.2031C28.1025 22.2894 28.4494 22.1506 28.62 21.8581C28.8656 21.4362 28.6463 20.8887 28.1719 20.7631Z" fill="#29ABE2"/>
<path d="M15.7669 15.3294C17.1225 15.3294 18.2269 16.4263 18.2269 17.7744C18.2269 19.1244 17.1225 20.2213 15.7669 20.2213C14.5463 20.2213 13.5337 19.3344 13.3406 18.1756C13.32 18.0444 13.305 17.9113 13.305 17.7744C13.305 17.6113 13.3219 17.4538 13.3519 17.3C13.5769 16.1769 14.5725 15.3294 15.7669 15.3294ZM29.9287 32.7144L29.6344 32.4856C29.46 32.3488 29.2087 32.3806 29.0737 32.5531C27.4481 34.6156 24.4762 35.1125 22.32 33.6988C22.1869 33.6125 22.0575 33.5169 21.93 33.4156C21.8212 33.3275 21.7162 33.2338 21.6169 33.1381C19.7887 31.3925 19.5506 28.5144 21.1462 26.4894L21.2044 26.4163C21.3375 26.2456 21.3094 25.9981 21.1369 25.865L20.835 25.6306C20.6644 25.4956 20.415 25.5256 20.2819 25.6963C18.3262 28.1769 18.5287 31.7169 20.7206 33.8975L20.5237 34.145C20.3831 34.3231 20.3419 34.5481 20.3869 34.7544C20.1094 34.9119 19.7887 35.015 19.4119 35.0525C17.0587 35.2794 16.0669 32.6488 16.17 30.7513C16.395 26.5831 19.7044 23.2119 21.4181 19.5875C23.1319 15.9631 24.405 11.6038 23.8669 7.56877C23.4131 4.14877 20.955 0.638767 17.1675 0.576892C15.2419 0.546892 13.5469 1.64939 12.4144 3.13814C11.2275 4.69814 10.7025 6.59002 10.3237 8.48564C9.62812 7.11877 8.68687 5.84939 7.10625 5.46877C5.36812 5.04877 3.83437 6.17002 3.36187 7.82189C2.79375 9.81689 3.90187 11.9038 5.09625 13.4431C6.23812 14.915 7.73062 16.1206 9.40125 16.9531C10.4212 17.4594 11.4994 17.8288 12.6094 18.0519C12.75 19.6606 14.1112 20.9263 15.7669 20.9263C17.5144 20.9263 18.9356 19.5125 18.9356 17.7744C18.9356 16.0381 17.5144 14.6244 15.7669 14.6244C14.2256 14.6244 12.9375 15.7231 12.6544 17.1744C9.71625 16.5519 7.02187 14.8269 5.34187 12.3125C4.27875 10.7225 3.10125 7.55189 5.47125 6.42127C6.51187 5.92627 7.70625 6.47002 8.45437 7.22564C9.24375 8.02064 9.68812 9.10064 10.125 10.1113C10.2694 10.4469 10.8544 10.3588 10.9181 10.01C11.3025 7.88002 11.6925 5.63564 12.975 3.83189C14.1112 2.23252 15.9525 1.12627 17.9662 1.52564C22.5019 2.42002 23.46 7.56689 22.9669 11.4125C22.6856 13.61 22.08 15.7869 21.2456 17.84C20.4262 19.85 19.3125 21.68 18.1725 23.5194C16.365 26.4406 13.8263 30.9294 16.17 34.2556C17.2013 35.72 19.2469 36.4663 20.8519 35.4425C20.91 35.405 20.9681 35.3656 21.0244 35.3263C21.27 35.3544 21.525 35.2606 21.69 35.0525L21.885 34.805C24.5175 36.3913 27.9956 35.8081 29.9419 33.3425L29.9963 33.2713C30.1312 33.0988 30.1012 32.8494 29.9287 32.7144Z" fill="#4D4D4D"/>
<path d="M15.7669 16.2706C14.9306 16.2706 14.2519 16.9456 14.2519 17.7744C14.2519 18.605 14.9306 19.28 15.7669 19.28C16.6013 19.28 17.28 18.605 17.28 17.7744C17.28 16.9456 16.6013 16.2706 15.7669 16.2706Z" fill="#29ABE2"/>
</g>
<defs>
<clipPath id="clip0_12_24">
<rect width="36" height="36" fill="white" transform="translate(0 0.5)"/>
</clipPath>
</defs>
</svg>
